<?xml version="1.0" standalone="no"?>
<!DOCTYPE svg PUBLIC "-//W3C//DTD SVG 1.1//EN" "http://www.w3.org/Graphics/SVG/1.1/DTD/svg11.dtd" >
<svg xmlns="http://www.w3.org/2000/svg" xmlns:xlink="http://www.w3.org/1999/xlink" version="1.1">
<metadata></metadata>
<defs>
<font id="psl_kittithadacsbold" horiz-adv-x="0" >
<font-face units-per-em="2048" ascent="1638" descent="-410" />
<missing-glyph horiz-adv-x="573" />
<glyph unicode="&#xd;" horiz-adv-x="512" />
<glyph unicode=" "  horiz-adv-x="573" />
<glyph unicode="&#x09;" horiz-adv-x="573" />
<glyph unicode="&#xa0;" horiz-adv-x="573" />
<glyph unicode="!" horiz-adv-x="373" d="M92 86q0 39 27.5 67.5t66.5 28.5t67 -28.5t28 -67.5t-28 -66t-67 -27t-66.5 27t-27.5 66zM117 815v266h141v-266l-33 -539h-78z" />
<glyph unicode="&#x22;" horiz-adv-x="590" d="M111 1081h141l-27 -471h-88zM340 1081h139l-24 -471h-93z" />
<glyph unicode="#" horiz-adv-x="784" d="M23 301v115h161l37 221h-145v115h166l49 278h108l-49 -278h170l49 278h111l-49 -278h127v-115h-148l-39 -221h142v-115h-162l-55 -301h-105l51 301h-170l-55 -301h-104l49 301h-139zM293 416h172l37 221h-172z" />
<glyph unicode="$" horiz-adv-x="784" d="M63 279l134 30q2 -92 59 -149.5t141 -57.5t138.5 54.5t54.5 136.5q0 98 -58 151q-30 31 -122 74l-72 33q-109 49 -158 100q-69 72 -69 174q0 119 82 197q75 72 190 80v131h70v-131q168 -19 237 -160l-104 -63q-64 98 -183 98q-65 0 -110 -41q-51 -43 -51 -111 q0 -98 143 -155l76 -31q127 -51 186 -117q74 -84 74 -219q0 -129 -76 -216t-192 -102v-142h-70v138q-125 6 -211 82q-92 82 -109 216z" />
<glyph unicode="%" horiz-adv-x="965" d="M14 856q0 102 73 174t171 72q100 0 172 -72t72 -174q0 -100 -73 -172t-171 -72t-171 72t-73 172zM96 856q0 -65 48.5 -111.5t113.5 -46.5q66 0 114 46.5t48 111.5q0 66 -48 113t-114 47q-65 0 -113.5 -47t-48.5 -113zM143 10l615 1094l65 -33l-614 -1090zM463 223 q0 103 72.5 174.5t171.5 71.5q100 0 171.5 -71.5t71.5 -174.5q0 -100 -72.5 -170t-170.5 -70q-99 0 -171.5 70t-72.5 170zM547 223q0 -63 47 -110t113 -47q65 0 113 47t48 110q0 68 -47 114t-114 46q-66 0 -113 -46t-47 -114z" />
<glyph unicode="&#x26;" horiz-adv-x="940" d="M63 295q0 100 62 180q57 74 188 158q-123 127 -123 233q0 109 71 173.5t177 64.5q101 0 172.5 -61.5t71.5 -163.5q0 -78 -61 -152q-37 -45 -132 -119l220 -270l112 135l92 -78l-127 -153l189 -242h-162l-113 145q-151 -164 -315 -164q-133 0 -227.5 88.5t-94.5 225.5z M186 295q0 -78 59.5 -137.5t135.5 -59.5q100 0 240 144l-230 293q-205 -140 -205 -240zM319 883q0 -70 99 -178q74 59 86 69q53 55 53 107q0 116 -121 116q-49 0 -83 -31.5t-34 -82.5z" />
<glyph unicode="'" horiz-adv-x="365" d="M113 1081h141l-27 -471h-88z" />
<glyph unicode="(" horiz-adv-x="422" d="M68 449q0 333 211 653h127q-87 -127 -142 -295q-61 -186 -61 -358q0 -173 61 -359q55 -165 142 -292h-127q-211 317 -211 651z" />
<glyph unicode=")" horiz-adv-x="422" d="M16 -202q86 127 142 292q61 186 61 359q0 172 -61 358q-56 168 -142 295h127q211 -320 211 -653q0 -334 -211 -651h-127z" />
<glyph unicode="*" horiz-adv-x="698" d="M96 848l37 108l164 -59l-6 184h117l-7 -184l168 59l33 -108l-170 -53l111 -146l-90 -71l-99 180l-100 -183l-96 72l108 148z" />
<glyph unicode="+" horiz-adv-x="799" d="M61 317v103h287v287h103v-287h286v-103h-286v-286h-103v286h-287z" />
<glyph unicode="," horiz-adv-x="319" d="M72 72q0 32 25.5 59t62.5 27q45 0 72.5 -32t27.5 -75q0 -126 -151 -216l-27 33q90 51 113 132q-17 -7 -41 -7q-33 0 -57.5 23t-24.5 56z" />
<glyph unicode="-" horiz-adv-x="457" d="M72 317v103h313v-103h-313z" />
<glyph unicode="." horiz-adv-x="319" d="M76 74q0 35 24.5 59.5t59.5 24.5t59.5 -24.5t24.5 -59.5t-24.5 -58t-59.5 -23t-59.5 23t-24.5 58z" />
<glyph unicode="/" horiz-adv-x="745" d="M29 -140l587 1385l101 -39l-584 -1383z" />
<glyph unicode="0" horiz-adv-x="799" d="M33 541q0 227 82 381q98 182 284 182q189 0 285 -182q80 -152 80 -381q0 -230 -80 -381q-98 -179 -285 -179q-186 0 -284 179q-82 153 -82 381zM160 543q0 -170 49 -289q63 -156 190 -156t191 156q49 119 49 289t-49 291q-64 155 -191 155t-190 -155q-49 -121 -49 -291z " />
<glyph unicode="1" horiz-adv-x="799" d="M147 958l72 123h258v-1081h-125v958h-205z" />
<glyph unicode="2" horiz-adv-x="799" d="M53 0l459 580q94 118 94 194q0 90 -53 148.5t-152 58.5q-77 0 -135.5 -57.5t-66.5 -145.5h-131q18 154 106 240t227 86q154 0 242 -90t88 -234q0 -125 -78 -223l-344 -434h426v-123h-682z" />
<glyph unicode="3" horiz-adv-x="799" d="M66 266h129q10 -78 67 -125t133 -47q86 0 143.5 61.5t57.5 151.5q0 101 -60.5 157t-162.5 52v113q207 4 207 172q0 82 -52.5 134t-130.5 52q-141 0 -174 -153h-129q43 270 307 270q129 0 216.5 -80t87.5 -211q0 -158 -134 -242q150 -84 150 -270q0 -147 -95.5 -233.5 t-240.5 -86.5q-127 0 -215 72q-94 80 -104 213z" />
<glyph unicode="4" horiz-adv-x="799" d="M4 158l639 968v-854h119v-114h-119v-158h-125v158h-514zM219 272h299v457z" />
<glyph unicode="5" horiz-adv-x="799" d="M31 168l106 82q29 -70 91.5 -110t129.5 -40q105 0 179.5 78t74.5 184q0 107 -74.5 184t-177.5 77q-116 0 -194 -97h-29v555h506v-123h-381v-253q66 34 139 34q148 0 242 -111.5t94 -267.5q0 -167 -112.5 -273t-274.5 -106q-98 0 -185 48.5t-134 138.5z" />
<glyph unicode="6" horiz-adv-x="799" d="M47 322q0 131 113 286l358 496l103 -57l-287 -400q47 25 104 25q127 0 216 -103.5t89 -236.5q0 -148 -101 -249.5t-245 -101.5q-143 0 -246.5 98.5t-103.5 242.5zM172 326q0 -93 66.5 -160.5t156.5 -67.5q88 0 155.5 65.5t67.5 153.5q0 99 -68.5 166.5t-154.5 67.5 q-84 0 -153.5 -68.5t-69.5 -156.5z" />
<glyph unicode="7" horiz-adv-x="799" d="M43 31l551 930h-543v120h756l-655 -1100z" />
<glyph unicode="8" horiz-adv-x="799" d="M70 301q0 186 163 260q-137 94 -137 242q0 131 87 216t214 85t213 -85t86 -216q0 -152 -137 -242q166 -74 166 -260q0 -147 -94 -233.5t-234 -86.5q-137 0 -232 87.5t-95 232.5zM195 301q0 -82 59 -142.5t143 -60.5q82 0 142.5 60.5t60.5 142.5q0 84 -61.5 143.5 t-141.5 59.5t-141 -59.5t-61 -143.5zM221 803q0 -68 52.5 -126.5t123.5 -58.5q70 0 124 58.5t54 126.5q0 76 -53 131t-125 55q-71 0 -123.5 -55t-52.5 -131z" />
<glyph unicode="9" horiz-adv-x="799" d="M57 748q0 149 101.5 252.5t247.5 103.5q153 0 249.5 -99.5t96.5 -246.5q0 -127 -113 -285l-354 -492l-105 56l287 395q-43 -16 -105 -16q-126 0 -215.5 100t-89.5 232zM182 758q0 -94 70 -161t154 -67q98 0 159.5 68t61.5 160q0 90 -63.5 157.5t-153.5 67.5 q-97 0 -162.5 -66.5t-65.5 -158.5z" />
<glyph unicode=":" horiz-adv-x="319" d="M76 74q0 35 24.5 59.5t59.5 24.5t59.5 -24.5t24.5 -59.5t-24.5 -58t-59.5 -23t-59.5 23t-24.5 58zM76 582q0 34 24.5 59t59.5 25t59.5 -25t24.5 -59q0 -35 -24.5 -59.5t-59.5 -24.5t-59.5 24.5t-24.5 59.5z" />
<glyph unicode=";" horiz-adv-x="319" d="M72 72q0 32 25.5 59t62.5 27q45 0 72.5 -32t27.5 -75q0 -126 -151 -216l-27 33q90 51 113 132q-17 -7 -41 -7q-33 0 -57.5 23t-24.5 56zM76 582q0 34 24.5 59t59.5 25t59.5 -25t24.5 -59q0 -35 -24.5 -59.5t-59.5 -24.5t-59.5 24.5t-24.5 59.5z" />
<glyph unicode="&#x3c;" horiz-adv-x="799" d="M43 317v101l713 297v-133l-533 -215l533 -213v-134z" />
<glyph unicode="=" horiz-adv-x="799" d="M61 195v102h676v-102h-676zM61 440v103h676v-103h-676z" />
<glyph unicode="&#x3e;" horiz-adv-x="799" d="M43 20v134l537 213l-537 215v133l713 -297v-101z" />
<glyph unicode="?" horiz-adv-x="770" d="M53 813q0 123 96.5 206t239.5 83q146 0 236 -84q84 -80 84 -197q0 -102 -123 -229t-123 -203v-94h-135v115q0 90 121.5 208.5t121.5 204.5q0 62 -47 107q-53 49 -139 49q-80 0 -133 -43t-53 -115q0 -33 10 -67l-141 -33q-15 47 -15 92zM295 92q0 43 28.5 72t71.5 29 t72 -29t29 -72t-29 -71t-72 -28q-41 0 -70.5 28t-29.5 71z" />
<glyph unicode="@" horiz-adv-x="1126" d="M41 541q0 239 158.5 401t390.5 162q209 0 352 -136.5t143 -318.5q0 -190 -88 -303q-100 -129 -221 -125q-26 2 -51 27.5t-27 60.5q-92 -88 -194 -88q-96 0 -168 77t-72 196q0 131 82 232t209 101t193 -98l18 86h102l-71 -369q-13 -59 -13 -79q0 -45 33 -45q51 0 102.5 87 t51.5 187q0 178 -111 289q-108 104 -276 104q-178 0 -303 -131t-125 -317q0 -193 133 -321t319 -128q183 0 269 70l88 -90q-125 -91 -355 -91q-248 0 -408.5 158t-160.5 402zM375 496q0 -66 40 -115t103 -49q168 0 193 200q10 86 -30 135.5t-116 49.5q-84 0 -137 -67.5 t-53 -153.5z" />
<glyph unicode="A" horiz-adv-x="956" d="M-15 0l496 1126l494 -1126h-139l-121 270h-473l-119 -270h-138zM297 391h365l-183 440z" />
<glyph unicode="B" horiz-adv-x="743" d="M80 0v1081h147q383 0 383 -297q0 -135 -102 -204q86 -21 142.5 -101t56.5 -176q0 -151 -113 -233q-96 -70 -250 -70h-264zM211 121h119q248 0 248 190q0 185 -246 185h-121v-375zM211 602h51q109 0 160 33q67 41 67 147q0 179 -223 179h-55v-359z" />
<glyph unicode="C" horiz-adv-x="905" d="M31 535q0 241 158.5 405t400.5 164q151 0 270 -74v-156q-123 107 -285 107q-174 0 -293.5 -130t-119.5 -312q0 -179 119.5 -309t291.5 -130q156 0 287 113v-160q-133 -72 -282 -72q-236 0 -391.5 158t-155.5 396z" />
<glyph unicode="D" horiz-adv-x="903" d="M80 0v1081h211q256 0 416 -133q172 -143 172 -401q0 -266 -172 -412q-160 -135 -420 -135h-207zM211 123h41q221 0 348 92q148 107 148 326q0 417 -496 417h-41v-835z" />
<glyph unicode="E" horiz-adv-x="705" d="M88 0v1081h565v-123h-432v-303h414v-123h-414v-409h432v-123h-565z" />
<glyph unicode="F" horiz-adv-x="639" d="M88 0v1081h508v-123h-377v-305h361v-123h-361v-530h-131z" />
<glyph unicode="G" horiz-adv-x="1065" d="M20 537q0 235 155 401t386 166q131 0 253 -61.5t192 -172.5l-107 -65q-137 176 -332 176q-174 0 -295.5 -128t-121.5 -310q0 -174 119.5 -308.5t287.5 -134.5q123 0 228.5 94.5t113.5 227.5h-338v123h483v-43q0 -226 -139 -373.5t-356 -147.5q-221 0 -375 164t-154 392z " />
<glyph unicode="H" horiz-adv-x="911" d="M80 0v1081h131v-436h487v436h131v-1081h-131v518h-487v-518h-131z" />
<glyph unicode="I" horiz-adv-x="301" d="M86 0v1081h131v-1081h-131z" />
<glyph unicode="J" horiz-adv-x="487" d="M-34 33l61 112q53 -43 112 -43q99 0 131 105q17 55 17 186v688h131v-688q0 -412 -285 -412q-98 0 -167 52z" />
<glyph unicode="K" horiz-adv-x="813" d="M88 0v1081h133v-479l445 479h168l-465 -487l473 -594h-166l-393 500l-62 -62v-438h-133z" />
<glyph unicode="L" horiz-adv-x="514" d="M88 0v1081h133v-962h318v-119h-451z" />
<glyph unicode="M" horiz-adv-x="1163" d="M8 0l215 1126l361 -852l358 852l213 -1126h-135l-119 719l-317 -738l-318 736l-123 -717h-135z" />
<glyph unicode="N" horiz-adv-x="1061" d="M78 0v1133l776 -848v794h131v-1121l-776 845v-803h-131z" />
<glyph unicode="O" horiz-adv-x="1124" d="M16 541q0 231 160 397t385 166t385 -166t160 -397q0 -240 -157.5 -400t-387.5 -160q-229 0 -387 160t-158 400zM147 541q0 -185 122 -312t292 -127q172 0 293 127t121 312q0 182 -116 309t-298 127q-180 0 -297 -127t-117 -309z" />
<glyph unicode="P" horiz-adv-x="682" d="M88 0v1081h162q231 0 332 -82q92 -73 92 -231q0 -160 -111 -244q-96 -71 -258 -71h-84v-453h-133zM221 573h51q279 0 279 199q0 189 -285 189h-45v-388z" />
<glyph unicode="Q" horiz-adv-x="1124" d="M16 541q0 231 160 397t385 166t385 -166t160 -397q0 -234 -164 -398l166 -162h-162l-90 93q-139 -93 -295 -93q-229 0 -387 160t-158 400zM147 541q0 -185 122 -312t292 -127q101 0 205 64l-240 242h160l168 -170q121 120 121 303q0 182 -116 309t-298 127 q-180 0 -297 -127t-117 -309z" />
<glyph unicode="R" horiz-adv-x="745" d="M88 0v1081h215q164 0 262 -73q109 -80 109 -236q0 -113 -67.5 -196.5t-182.5 -104.5l330 -471h-160l-309 457h-64v-457h-133zM221 569h51q279 0 279 197q0 195 -285 195h-45v-392z" />
<glyph unicode="S" horiz-adv-x="727" d="M35 279l133 30q2 -92 59.5 -149.5t141.5 -57.5t138 54.5t54 136.5q0 98 -57 151q-31 31 -123 74l-72 33q-108 49 -157 100q-70 72 -70 174q0 127 88 203t213 76q199 0 279 -162l-105 -63q-63 98 -182 98q-66 0 -111 -41q-51 -43 -51 -111q0 -98 143 -155l76 -31 q127 -51 186 -117q74 -84 74 -219q0 -143 -93 -232.5t-228 -89.5q-129 0 -224.5 80t-111.5 218z" />
<glyph unicode="T" horiz-adv-x="612" d="M-9 958v123h634v-123h-254v-958h-129v958h-251z" />
<glyph unicode="U" horiz-adv-x="909" d="M72 397v684h131v-639q0 -147 55 -235q66 -105 197 -105q133 0 198 105q56 88 56 235v639h131v-684q0 -184 -101 -299q-104 -117 -284 -117q-176 0 -279.5 117t-103.5 299z" />
<glyph unicode="V" horiz-adv-x="879" d="M-17 1081h140l319 -798l314 798h143l-457 -1135z" />
<glyph unicode="W" horiz-adv-x="1421" d="M-17 1081h138l297 -772l293 795l297 -795l292 772h142l-434 -1121l-297 792l-293 -792z" />
<glyph unicode="X" horiz-adv-x="784" d="M-11 0l337 567l-299 514h147l225 -395l236 395h147l-309 -516l326 -565h-146l-254 444l-268 -444h-142z" />
<glyph unicode="Y" horiz-adv-x="770" d="M-15 1081h146l256 -467l250 467h151l-337 -608v-473h-134v473z" />
<glyph unicode="Z" horiz-adv-x="745" d="M2 0l528 958h-456v123h674l-527 -958h527v-123h-746z" />
<glyph unicode="[" horiz-adv-x="459" d="M82 -226v1369h293v-119h-168v-1132h168v-118h-293z" />
<glyph unicode="\" horiz-adv-x="745" d="M33 1245h117l561 -1245h-117z" />
<glyph unicode="]" horiz-adv-x="459" d="M82 -108h170v1132h-170v119h293v-1369h-293v118z" />
<glyph unicode="^" horiz-adv-x="784" d="M35 442l278 639h156l279 -639h-130l-225 531l-229 -531h-129z" />
<glyph unicode="_" horiz-adv-x="799" d="M0 -99h799v-103h-799v103z" />
<glyph unicode="`" horiz-adv-x="479" d="M96 987l115 66l174 -238l-59 -39z" />
<glyph unicode="a" horiz-adv-x="756" d="M25 340q0 141 87 245.5t224 104.5q151 0 229 -108v90h125v-672h-125v90q-67 -109 -225 -109q-143 0 -231 105q-84 102 -84 254zM152 336q0 -100 55 -172t151 -72q99 0 156 69.5t57 174.5q0 100 -57 169.5t-156 69.5q-94 0 -150 -70.5t-56 -168.5z" />
<glyph unicode="b" horiz-adv-x="756" d="M66 0v1204h124v-618q89 104 232 104q137 0 223 -104.5t86 -245.5q0 -152 -82 -254q-86 -105 -231 -105q-156 0 -228 105v-86h-124zM184 336q0 -100 56.5 -172t152.5 -72q99 0 156 69.5t57 174.5q0 100 -58.5 169.5t-154.5 69.5q-94 0 -151.5 -70.5t-57.5 -168.5z" />
<glyph unicode="c" horiz-adv-x="598" d="M25 330q0 159 102 259.5t254 100.5q100 0 176 -41v-149q-65 71 -172 71q-102 0 -167.5 -69.5t-65.5 -165.5q0 -105 63.5 -171.5t161.5 -66.5q104 0 180 76v-154q-86 -39 -182 -39q-152 0 -251 97.5t-99 251.5z" />
<glyph unicode="d" horiz-adv-x="756" d="M25 340q0 141 87 245.5t222 104.5q153 0 231 -96v610h125v-1204h-125v74q-84 -93 -225 -93q-145 0 -234 105q-81 102 -81 254zM152 336q0 -100 55 -172t151 -72q99 0 156 69.5t57 174.5q0 100 -57 169.5t-156 69.5q-94 0 -150 -70.5t-56 -168.5z" />
<glyph unicode="e" horiz-adv-x="659" d="M25 330q0 162 82.5 261t236.5 99q150 0 229 -104q74 -94 74 -252v-21h-495q4 -90 58 -155.5t138 -65.5q127 0 193 131l108 -61q-102 -181 -303 -181q-145 0 -233 98.5t-88 250.5zM158 412h358q-33 168 -174 168q-147 0 -184 -168z" />
<glyph unicode="f" horiz-adv-x="360" d="M43 551v121h57v284q0 265 222 265q49 0 98 -17v-129q-34 25 -81 25h-7q-66 -2 -90 -58q-17 -38 -17 -124v-246h170v-121h-170v-551h-125v551h-57z" />
<glyph unicode="g" horiz-adv-x="754" d="M23 340q0 141 87 245.5t222 104.5q155 0 231 -104v86h125v-660q0 -187 -63 -281q-78 -113 -256 -113q-138 0 -224 81t-92 224h125q2 -92 56 -143q51 -47 129 -47h12q188 6 188 248v91q-90 -91 -225 -91q-145 0 -234 105q-81 102 -81 254zM150 336q0 -100 55 -170 q57 -76 151 -76q101 0 157 69.5t56 176.5q0 100 -57 169.5t-156 69.5q-94 0 -150 -70.5t-56 -168.5z" />
<glyph unicode="h" horiz-adv-x="711" d="M76 0v1204h125v-604q69 90 196 90q238 0 238 -291v-399h-125v385q0 94 -23 135q-32 55 -122 55q-101 0 -140 -88q-24 -59 -24 -182v-305h-125z" />
<glyph unicode="i" horiz-adv-x="334" d="M80 936q0 39 25.5 64.5t60.5 25.5q37 0 61.5 -25.5t24.5 -64.5q0 -35 -24.5 -60.5t-61.5 -25.5q-35 0 -60.5 25.5t-25.5 60.5zM102 0v672h125v-672h-125z" />
<glyph unicode="j" horiz-adv-x="334" d="M80 936q0 39 25.5 64.5t60.5 25.5q37 0 61.5 -25.5t24.5 -64.5q0 -35 -24.5 -60.5t-61.5 -25.5q-35 0 -60.5 25.5t-25.5 60.5zM102 -382v1054h125v-1054h-125z" />
<glyph unicode="k" horiz-adv-x="621" d="M86 0v1204h125v-788l244 256h163l-272 -283l301 -389h-162l-227 301l-47 -49v-252h-125z" />
<glyph unicode="l" horiz-adv-x="287" d="M82 0v1204h125v-1204h-125z" />
<glyph unicode="m" horiz-adv-x="1047" d="M72 0v672h125v-72q63 90 174 90q129 0 188 -119q70 119 197 119q219 0 219 -289v-401h-125v381q0 194 -121 194q-143 0 -143 -245v-330h-125v356q0 219 -119 219q-145 0 -145 -245v-330h-125z" />
<glyph unicode="n" horiz-adv-x="711" d="M76 0v672h125v-82q61 100 192 100q242 0 242 -291v-399h-125v385q0 94 -23 135q-32 55 -122 55q-105 0 -140 -88q-24 -57 -24 -180v-307h-125z" />
<glyph unicode="o" horiz-adv-x="723" d="M18 334q0 151 98.5 253.5t243.5 102.5q146 0 245.5 -102.5t99.5 -253.5q0 -152 -99.5 -252.5t-245.5 -100.5q-145 0 -243.5 100.5t-98.5 252.5zM143 334q0 -96 62.5 -165t154.5 -69q93 0 156.5 69t63.5 165t-63.5 164.5t-156.5 68.5q-92 0 -154.5 -68.5t-62.5 -164.5z " />
<glyph unicode="p" horiz-adv-x="756" d="M66 -382v1054h124v-94q76 112 232 112q137 0 223 -104.5t86 -245.5q0 -152 -82 -254q-86 -105 -231 -105q-146 0 -228 95v-458h-124zM184 336q0 -100 56 -170q57 -76 153 -76q99 0 156 70.5t57 175.5q0 100 -58.5 169.5t-154.5 69.5q-94 0 -151.5 -70.5t-57.5 -168.5z " />
<glyph unicode="q" horiz-adv-x="756" d="M25 340q0 141 86 245.5t223 104.5q155 0 231 -112v94h125v-1054h-125v458q-82 -95 -227 -95t-232 105q-81 102 -81 254zM150 336q0 -105 57 -175.5t155 -70.5q97 0 154 76q55 70 55 170q0 98 -57 168.5t-152 70.5q-96 0 -154 -69.5t-58 -169.5z" />
<glyph unicode="r" horiz-adv-x="469" d="M86 0v672h125v-90q51 108 170 108q70 0 115 -31l-60 -118q-30 26 -76 26q-149 0 -149 -237v-330h-125z" />
<glyph unicode="s" horiz-adv-x="514" d="M35 125l110 53q31 -86 119 -86q41 0 69.5 26.5t28.5 67.5q0 43 -52 74t-107 59q-142 76 -142 181q0 82 57.5 136t141.5 54q133 0 182 -119l-102 -51q-21 55 -80 55q-29 0 -51.5 -19t-22.5 -46q0 -47 78 -86q131 -66 146 -76q77 -57 77 -149q0 -95 -63.5 -156.5 t-159.5 -61.5q-174 0 -229 144z" />
<glyph unicode="t" horiz-adv-x="313" d="M20 551v121h72v297h127v-297h123v-121h-123v-551h-127v551h-72z" />
<glyph unicode="u" horiz-adv-x="690" d="M72 285v387h125v-373q0 -201 151 -201q152 0 152 201v373h125v-387q0 -304 -277 -304q-276 0 -276 304z" />
<glyph unicode="v" horiz-adv-x="590" d="M-28 672h141l180 -416l184 416h144l-328 -691z" />
<glyph unicode="w" horiz-adv-x="971" d="M-28 672h139l182 -424l194 461l193 -461l180 424h141l-321 -691l-195 447l-192 -447z" />
<glyph unicode="x" horiz-adv-x="655" d="M-28 0l288 365l-235 307h147l156 -221l155 221h148l-236 -307l291 -365h-149l-209 276l-209 -276h-147z" />
<glyph unicode="y" horiz-adv-x="647" d="M-26 672h143l217 -422l201 422h141l-522 -1054h-144l258 499z" />
<glyph unicode="z" horiz-adv-x="668" d="M-3 0l437 551h-371v121h613l-436 -551h419v-121h-662z" />
<glyph unicode="{" horiz-adv-x="444" d="M57 406v104q103 49 103 215v260q0 94 29.5 142.5t111.5 48.5h86v-121h-55q-45 0 -45 -88v-265q0 -163 -105 -245q105 -82 105 -246v-263q0 -86 45 -86h55v-121h-86q-82 0 -115 51q-26 45 -26 139v257q0 164 -103 218z" />
<glyph unicode="|" horiz-adv-x="532" d="M205 0v1245h121v-1245h-121z" />
<glyph unicode="}" horiz-adv-x="444" d="M57 -138h56q45 0 45 86v263q0 164 104 246q-104 82 -104 245v265q0 88 -45 88h-56v121h86q82 0 115 -52q27 -45 27 -139v-260q0 -166 102 -215v-104q-102 -54 -102 -218v-257q0 -94 -27 -139q-33 -51 -115 -51h-86v121z" />
<glyph unicode="~" horiz-adv-x="784" d="M33 326q90 176 215 176q76 0 171 -73t116 -73q65 0 120 125l93 -75q-72 -175 -211 -175q-58 0 -160.5 74t-124.5 74q-68 0 -127 -119z" />
<glyph unicode="&#xa4;" horiz-adv-x="840" d="M8 164l76 -76l145 148q82 -62 193 -62q53 0 105.5 18.5t82.5 43.5l150 -148l71 76l-145 145q59 78 59 193q0 110 -59 188l145 150l-71 71l-150 -145q-32 27 -82.5 43t-105.5 16q-115 0 -193 -59l-145 145l-76 -71l148 -150q-62 -74 -62 -188q0 -111 62 -193zM197 502 q0 88 65 160q64 67 160 67q49 0 89 -18.5t69.5 -49t46 -72.5t16.5 -87q0 -101 -63 -164q-66 -68 -158 -68q-98 0 -162 68q-63 70 -63 164z" />
<glyph unicode="&#xa9;" horiz-adv-x="1188" d="M29 541q0 231 164.5 392t400.5 161q235 0 400 -161t165 -392q0 -232 -165 -391t-400 -159q-236 0 -400.5 159t-164.5 391zM121 541q0 -195 139 -329t334 -134q194 0 333.5 134t139.5 329q0 194 -139.5 328.5t-333.5 134.5q-195 0 -334 -134.5t-139 -328.5zM291 537 q0 137 93 231t230 94q144 0 222 -76v-116q-74 104 -218 104q-98 0 -166.5 -70.5t-68.5 -166.5q0 -97 68.5 -168.5t166.5 -71.5q144 0 218 104v-116q-78 -76 -224 -76q-139 0 -230 95t-91 233z" />
<glyph unicode="&#xab;" horiz-adv-x="707" d="M31 457l254 344l84 -49l-219 -295l219 -295l-84 -49zM297 457l254 344l84 -49l-219 -295l219 -295l-84 -49z" />
<glyph unicode="&#xac;" horiz-adv-x="799" d="M61 317v82h676v-268h-84v186h-592z" />
<glyph unicode="&#xad;" horiz-adv-x="778" d="M61 328v61h656v-61h-656z" />
<glyph unicode="&#xae;" horiz-adv-x="1188" d="M29 541q0 231 164.5 392t400.5 161q235 0 400 -161t165 -392q0 -232 -165 -391t-400 -159q-236 0 -400.5 159t-164.5 391zM121 541q0 -195 139 -329t334 -134q194 0 333.5 134t139.5 329q0 194 -139.5 328.5t-333.5 134.5q-195 0 -334 -134.5t-139 -328.5zM377 225v621 h266q217 0 217 -168q0 -154 -166 -166l162 -287h-108l-154 287h-127v-287h-90zM467 602h98q107 0 133 6q70 13 70 66q0 84 -143 84h-158v-156z" />
<glyph unicode="&#xb0;" horiz-adv-x="541" d="M66 713q0 -43 16 -80t43.5 -64.5t63.5 -43t77 -15.5q43 0 80.5 16t65 43.5t43.5 64.5t16 79t-16 79t-43.5 64t-65 43t-80.5 16q-42 0 -78.5 -16.5t-63.5 -44t-42.5 -64.5t-15.5 -77zM121 713q0 31 11 57.5t30.5 46t46 30.5t57.5 11t58 -11.5t47.5 -31t32.5 -46t12 -56.5 q0 -59 -45 -105q-45 -43 -105 -43q-30 0 -56.5 12t-46 32t-31 47t-11.5 57z" />
<glyph unicode="&#xb6;" horiz-adv-x="727" d="M0 858q0 152 94 229q90 66 248 66h389v-41h-102v-1354h-62v1354h-145v-1354h-55v803q-168 0 -263 62q-104 73 -104 235z" />
<glyph unicode="&#xb7;" horiz-adv-x="338" d="M96 449q0 -33 21 -54q11 -11 24.5 -15.5t28.5 -4.5q29 0 50.5 21.5t21.5 52.5q0 29 -20.5 50t-51.5 21q-33 0 -53 -20q-21 -24 -21 -51z" />
<glyph unicode="&#xbb;" horiz-adv-x="707" d="M74 162l219 295l-219 295l84 49l254 -344l-254 -344zM340 162l219 295l-219 295l84 49l254 -344l-254 -344z" />
<glyph unicode="&#xd7;" horiz-adv-x="799" d="M111 152l217 217l-217 217l71 71l217 -217l217 217l72 -71l-217 -217l217 -217l-72 -72l-217 217l-217 -217z" />
<glyph unicode="&#xf7;" horiz-adv-x="799" d="M61 317v103h676v-103h-676zM313 109q0 34 26 60t60 26q35 0 60.5 -26t25.5 -60q0 -35 -25.5 -60.5t-60.5 -25.5q-34 0 -60 25.5t-26 60.5zM313 629q0 35 26 60.5t60 25.5q35 0 60.5 -25.5t25.5 -60.5t-25.5 -60.5t-60.5 -25.5q-34 0 -60 25.5t-26 60.5z" />
<glyph unicode="&#xe00;" horiz-adv-x="205" />
<glyph unicode="&#xe01;" horiz-adv-x="819" d="M61 0v655q123 179 349 179q147 0 243 -70q105 -78 105 -207v-557h-123v541q0 86 -63.5 132t-161.5 46q-148 0 -226 -94v-625h-123z" />
<glyph unicode="&#xe02;" horiz-adv-x="758" d="M41 324q0 192 180 307l-102 137l100 63l158 -200q-213 -156 -213 -307q0 -97 60.5 -161.5t156.5 -64.5q84 0 138 51.5t54 126.5v543h123v-543q0 -126 -89 -206.5t-226 -80.5q-145 0 -242.5 94.5t-97.5 240.5z" />
<glyph unicode="&#xe03;" horiz-adv-x="758" d="M14 745l72 84q59 -24 104 -73l68 63h104v-248q-198 -94 -198 -254q0 -96 60.5 -157.5t156.5 -61.5q84 0 138 51.5t54 126.5v543h123v-543q0 -126 -89 -206.5t-226 -80.5q-148 0 -244 91.5t-96 236.5q0 179 199 299v52l-62 -54q-22 25 -45 48q-59 53 -119 83z" />
<glyph unicode="&#xe04;" horiz-adv-x="819" d="M61 0v553q0 121 107 203q100 78 242 78q141 0 244.5 -80t103.5 -201v-553h-123v553q0 76 -66.5 121t-158.5 45q-93 0 -156 -43q-70 -47 -70 -123v-80h258v-115h-258v-358h-123z" />
<glyph unicode="&#xe05;" horiz-adv-x="860" d="M61 0v567q0 111 74 189t197 78l98 -95l98 95q123 0 201 -80q70 -76 70 -187v-567h-123v567q0 54 -27.5 97t-73.5 55l-145 -144l-145 144q-45 -12 -73 -55t-28 -97v-94h279v-115h-279v-358h-123z" />
<glyph unicode="&#xe06;" horiz-adv-x="829" d="M-22 748l77 81q54 -24 90 -69l76 59h103v-188q0 -45 -64.5 -97.5t-64.5 -95.5v-157q0 -76 79 -131q74 -52 166 -52q88 0 146.5 45t58.5 119v557h123v-557q0 -123 -93 -198t-235 -75q-137 0 -245 74v-63h-123v463q0 49 64.5 98t64.5 82v25l-70 -54q-18 23 -41 45 q-53 54 -112 89z" />
<glyph unicode="&#xe07;" horiz-adv-x="774" d="M0 662l121 36l168 -589q149 -5 240.5 78t91.5 231q0 301 -330 301q-27 0 -55 -2v112q36 2 69 2q219 0 332 -112q106 -107 106 -301q0 -197 -123.5 -307.5t-340.5 -110.5q-46 0 -91 2z" />
<glyph unicode="&#xe08;" horiz-adv-x="803" d="M-17 670q162 164 386 164q184 0 293.5 -114t109.5 -294q0 -199 -137 -320q-146 -123 -379 -109l-98 406h-90v115h188l98 -412q131 9 213 99t82 221q0 127 -78.5 210t-205.5 83q-158 0 -285 -125z" />
<glyph unicode="&#xe09;" horiz-adv-x="809" d="M10 352v115h185v-201q0 -76 54 -121t134 -45q88 0 165 53.5t77 129.5v262q0 78 -68 126t-158 48q-82 0 -149 -35q-76 -41 -98 -113h-123q28 121 139 195q102 65 231 65q144 0 244 -77q105 -84 105 -209v-545h-123v82q-95 -91 -248 -91q-135 0 -220 75t-85 200v86h-62z " />
<glyph unicode="&#xe0a;" horiz-adv-x="756" d="M61 35v784h123v-700q74 -23 150 -21q123 4 195.5 65.5t72.5 160.5q0 221 -315 274l270 231l100 -55l-149 -135q217 -96 217 -315q0 -148 -100 -238q-107 -93 -293 -95q-144 -2 -271 44z" />
<glyph unicode="&#xe0b;" horiz-adv-x="786" d="M-19 748l74 81q62 -36 90 -69l76 59h103v-176q0 -43 -54.5 -94t-54.5 -86v-344q74 -23 150 -21q124 4 196 63.5t72 162.5q0 223 -305 276l260 229l100 -55l-149 -135q217 -96 217 -315q0 -148 -101 -238q-106 -93 -293 -95q-143 -2 -270 44v440q0 47 54.5 95t54.5 81v21 l-70 -54q-16 21 -37 41q-49 50 -113 89z" />
<glyph unicode="&#xe0c;" horiz-adv-x="1352" d="M61 0v655q123 179 349 179q147 0 243 -70q105 -78 105 -207v-274q0 -76 69.5 -129.5t155.5 -53.5q84 0 134 45t50 121v553h123v-553q0 -125 -82 -201t-215 -76q-135 0 -235 93v-82h-123v539q0 86 -63.5 133t-161.5 47q-148 0 -226 -96v-510h123v-113h-246z" />
<glyph unicode="&#xe0d;" horiz-adv-x="1352" d="M61 0v655q123 179 349 179q147 0 243 -70q105 -78 105 -207v-117q0 -73 61 -112q53 -35 139 -35t147.5 47t61.5 123v356h123v-553q0 -123 -99 -200t-243 -77q-203 0 -323 138l88 78q96 -105 239 -105q90 0 148 43q51 39 59 105q-24 -25 -83.5 -47.5t-117.5 -22.5 q-143 0 -233 69.5t-90 192.5v99q0 86 -63.5 133t-161.5 47q-148 0 -226 -96v-510h123v-113h-246z" />
<glyph unicode="&#xe0e;" horiz-adv-x="840" d="M0 0v117h82v536q123 181 348 181q148 0 244 -72q104 -78 104 -211v-876h-123l-174 129l-174 -129h-307v117h281l202 141l172 -120v722q0 88 -63.5 135t-161.5 47q-147 0 -225 -96v-621h-205z" />
<glyph unicode="&#xe0f;" horiz-adv-x="840" d="M0 0v115h82v540q123 179 348 179q148 0 244 -72q104 -76 104 -207v-880h-123l-106 101l-115 -111l-112 113l-111 -103h-211v115h174l150 131l110 -115l113 115l108 -98v716q0 86 -63.5 133t-161.5 47q-147 0 -225 -96v-623h-205z" />
<glyph unicode="&#xe10;" horiz-adv-x="793" d="M-28 662q163 163 386 163q103 0 183 -37l92 103l102 -68l-92 -102q119 -113 119 -303q0 -197 -137 -318q-146 -124 -379 -109l-101 417h-88v104h189l98 -412q131 9 213 99t82 219t-79 211t-206 82q-157 0 -284 -125zM0 -210h170l145 125l111 -109l113 109l102 -90v100 l-31 41h154v-291h-123l-100 99l-115 -109l-113 111l-108 -101h-205v115z" />
<glyph unicode="&#xe11;" horiz-adv-x="840" d="M-11 748l77 81q51 -28 90 -67l75 57h103v-180q0 -41 -64.5 -93t-64.5 -97v-187l313 563q123 0 191.5 -64.5t68.5 -168.5v-592h-123v594q0 96 -71 117l-391 -711h-111v467q0 55 64.5 104.5t64.5 79.5v21l-70 -49q-28 34 -152 125z" />
<glyph unicode="&#xe12;" horiz-adv-x="1397" d="M31 395q2 166 96 293t219 146l105 -101l94 92q119 0 188.5 -75.5t69.5 -190.5v-276q0 -76 69.5 -129.5t155.5 -53.5q84 0 134 45t50 121v553h123v-553q0 -125 -82 -201t-215 -76q-135 0 -235 93v-82h-123v559q0 123 -88 154l-139 -138l-146 134q-55 -33 -98 -111 q-53 -92 -55 -203q-4 -123 41 -200q51 -91 151 -91q74 0 121 62l90 -74q-65 -99 -209 -99q-153 0 -236 108t-81 294z" />
<glyph unicode="&#xe13;" horiz-adv-x="1352" d="M61 0v655q123 179 349 179q147 0 243 -70q105 -78 105 -207v-291q0 -76 50 -121t134 -45q86 0 155.5 53.5t69.5 129.5v536h123v-819h-123v82q-100 -93 -235 -93q-133 0 -215 76t-82 201v273q0 86 -63.5 133t-161.5 47q-148 0 -226 -96v-510h123v-113h-246z" />
<glyph unicode="&#xe14;" horiz-adv-x="823" d="M31 389q2 180 117.5 312.5t287.5 132.5q232 0 326 -177v-657h-123v618q-59 101 -193 101q-129 0 -213 -105q-75 -96 -79 -225q-4 -119 45 -196q51 -89 147 -89q68 0 117 58l86 -76q-80 -93 -203 -93q-153 0 -235 107t-80 289z" />
<glyph unicode="&#xe15;" horiz-adv-x="864" d="M31 395q2 166 96 293t219 146l105 -101l94 92q119 0 188.5 -75.5t69.5 -190.5v-559h-123v559q0 123 -88 154l-139 -138l-146 134q-55 -33 -98 -111q-53 -92 -55 -203q-4 -123 41 -200q51 -91 151 -91q74 0 121 62l90 -74q-65 -99 -209 -99q-153 0 -236 108t-81 294z" />
<glyph unicode="&#xe16;" horiz-adv-x="819" d="M61 0v655q123 179 349 179q147 0 243 -70q105 -78 105 -207v-557h-123v541q0 86 -63.5 132t-161.5 46q-148 0 -226 -94v-510h123v-115h-246z" />
<glyph unicode="&#xe17;" horiz-adv-x="819" d="M61 0v819h123v-84q109 99 254 99q140 0 230 -78t90 -207v-549h-123v535q0 83 -55.5 133.5t-145.5 50.5t-170 -53.5t-80 -128.5v-537h-123z" />
<glyph unicode="&#xe18;" horiz-adv-x="754" d="M37 621q0 90 104 151q99 59 224 59q124 0 225.5 -64.5t128.5 -172.5h-133q-25 57 -90.5 90t-139.5 33q-69 0 -129.5 -27.5t-60.5 -62.5q0 -49 227 -84q332 -51 332 -285q0 -127 -115 -201q-104 -64 -266 -64q-143 0 -293 42v364l123 39v-315q80 -23 166 -23q104 0 176 37 q84 41 84 121q0 135 -229 172q-170 29 -230 53q-104 45 -104 138z" />
<glyph unicode="&#xe19;" horiz-adv-x="819" d="M61 270v549h123v-534q0 -84 55.5 -134.5t145.5 -50.5t170 53.5t80 129.5v536h123v-819h-123v84q-109 -95 -254 -95q-141 0 -230.5 76t-89.5 205z" />
<glyph unicode="&#xe1a;" horiz-adv-x="819" d="M61 266v553h123v-553q0 -76 70 -123q63 -43 156 -43q92 0 158.5 45t66.5 121v553h123v-553q0 -121 -103.5 -199t-244.5 -78q-142 0 -245.5 78t-103.5 199z" />
<glyph unicode="&#xe1b;" horiz-adv-x="819" d="M61 266v553h123v-553q0 -76 70 -123q63 -43 156 -43q92 0 158.5 45t66.5 121v819h123v-819q0 -121 -103.5 -199t-244.5 -78q-142 0 -245.5 78t-103.5 199z" />
<glyph unicode="&#xe1c;" horiz-adv-x="1059" d="M0 819h270v-114h-114l123 -459l196 573h109l196 -573l154 573h125l-219 -819h-99l-213 618l-213 -618h-96z" />
<glyph unicode="&#xe1d;" horiz-adv-x="1059" d="M0 819h270v-114h-114l123 -459l196 573h109l196 -573l226 839h124l-290 -1085h-99l-213 618l-213 -618h-96z" />
<glyph unicode="&#xe1e;" horiz-adv-x="1059" d="M0 819h125l154 -573l196 573h109l196 -573l154 573h125l-219 -819h-99l-213 618l-213 -618h-96z" />
<glyph unicode="&#xe1f;" horiz-adv-x="1059" d="M0 819h125l154 -573l196 573h109l196 -573l226 839h124l-290 -1085h-99l-213 618l-213 -618h-96z" />
<glyph unicode="&#xe20;" horiz-adv-x="840" d="M0 0v115h82v540q123 179 348 179q148 0 244 -70q104 -78 104 -207v-557h-123v541q0 86 -63.5 132t-161.5 46q-147 0 -225 -94v-625h-205z" />
<glyph unicode="&#xe21;" horiz-adv-x="819" d="M61 0v819h123v-536q0 -76 80 -129.5t170 -53.5t145.5 50.5t55.5 134.5v534h123v-549q0 -129 -89 -205t-231 -76q-145 0 -254 95v-84h-123z" />
<glyph unicode="&#xe22;" horiz-adv-x="817" d="M31 264q0 72 49 133q41 54 96 78q-51 17 -89 60t-38 96q0 86 75 142t185 56q70 0 133 -22v-113q-96 21 -131 21q-135 0 -135 -84q0 -90 160 -90h106v-115h-88q-73 0 -134.5 -45t-61.5 -115q0 -76 69.5 -120t184.5 -44q120 0 221 68v649h123v-696q-121 -132 -344 -132 q-183 0 -285 79q-96 75 -96 194z" />
<glyph unicode="&#xe23;" horiz-adv-x="772" d="M31 289h123q0 -96 73 -148q62 -43 160 -43q90 0 157.5 41t67.5 111q0 104 -225 127q-156 14 -231 49q-107 49 -107 154q0 104 98.5 176.5t229.5 72.5q137 0 234.5 -63.5t115.5 -171.5h-129q-43 121 -221 121q-78 0 -139.5 -37t-61.5 -84q0 -86 236 -102q323 -23 323 -232 q0 -129 -106 -205q-99 -68 -246 -68t-244 72q-108 82 -108 230z" />
<glyph unicode="&#xe24;" horiz-adv-x="819" d="M61 0v655q123 179 349 179q147 0 243 -70q105 -78 105 -207v-861h-123v845q0 86 -63.5 132t-161.5 46q-148 0 -226 -94v-510h123v-115h-246z" />
<glyph unicode="&#xe25;" horiz-adv-x="838" d="M31 254q0 131 99 226t269 95q156 0 254 -86v121q-18 45 -79.5 77t-131.5 32q-178 0 -243 -125h-131q38 115 137.5 177.5t234.5 62.5q129 0 226 -64q86 -55 110 -137v-633h-123v330q-30 57 -99 94t-155 37q-112 0 -178.5 -59.5t-66.5 -147.5q0 -61 41 -105.5t102 -44.5 q63 0 123 37l72 -88q-78 -60 -195 -60t-191.5 76t-74.5 185z" />
<glyph unicode="&#xe26;" horiz-adv-x="840" d="M0 0v115h82v540q123 179 348 179q148 0 244 -70q104 -78 104 -207v-861h-123v845q0 86 -63.5 132t-161.5 46q-147 0 -225 -94v-625h-205z" />
<glyph unicode="&#xe27;" horiz-adv-x="776" d="M31 254h125q63 -154 221 -154q119 0 186 97q60 86 60 213t-60 213q-67 96 -186 96q-160 0 -217 -154h-129q35 125 135 199q94 70 211 70q172 0 274 -127q94 -117 94 -297q0 -181 -94 -297q-102 -124 -274 -124q-117 0 -211 66q-100 74 -135 199z" />
<glyph unicode="&#xe28;" horiz-adv-x="819" d="M61 0v549q0 119 107 201q100 75 242 75q82 0 147 -26l80 92l98 -68l-71 -82q94 -79 94 -192v-549h-123v549q0 74 -66.5 119t-158.5 45q-93 0 -156 -43q-70 -47 -70 -121v-80h258v-115h-258v-354h-123z" />
<glyph unicode="&#xe29;" horiz-adv-x="829" d="M61 266v553h123v-553q0 -76 70 -123q63 -43 156 -43q92 0 158.5 45t66.5 121v109h-238v155l62 -41h176v330h123v-330h82v-114h-82v-109q0 -121 -103.5 -199t-244.5 -78q-142 0 -242 74q-107 82 -107 203z" />
<glyph unicode="&#xe2a;" horiz-adv-x="838" d="M31 254q0 131 99 226t269 95q156 0 254 -86v121q-18 45 -79.5 77t-131.5 32q-178 0 -243 -125h-131q38 115 137.5 177.5t234.5 62.5q88 0 158 -29l78 86l100 -68q-35 -41 -74 -82q54 -47 74 -108v-633h-123v330q-30 57 -99 94t-155 37q-112 0 -178.5 -59.5t-66.5 -147.5 q0 -61 41 -105.5t102 -44.5q63 0 123 37l72 -88q-78 -60 -195 -60t-191.5 76t-74.5 185z" />
<glyph unicode="&#xe2b;" horiz-adv-x="829" d="M61 0v819h123v-272l420 282l139 -36l-186 -129q100 -19 160.5 -82.5t60.5 -151.5v-430h-123v410q0 77 -63.5 127.5t-153.5 50.5l-254 -176v-412h-123z" />
<glyph unicode="&#xe2c;" horiz-adv-x="1059" d="M0 819h125l154 -573l196 573h109l196 -573l82 305q8 29 8 53q0 109 -116 109h-70v106h113q135 0 159 86l33 119h125l-45 -168q-25 -90 -123 -123q53 -41 53 -112q0 -21 -4 -39l-155 -582h-99l-213 618l-213 -618h-96z" />
<glyph unicode="&#xe2d;" horiz-adv-x="893" d="M31 410q0 57 8 96h321v-115h-206q6 -127 87 -209t205 -82q129 0 211 87t82 223q0 135 -80.5 222t-212.5 87q-172 0 -258 -156h-133q113 271 391 271q187 0 301.5 -119t114.5 -305q0 -187 -114.5 -304t-301.5 -117q-186 0 -300.5 117t-114.5 304z" />
<glyph unicode="&#xe2e;" horiz-adv-x="893" d="M31 410q0 57 8 96h321v-115h-206q6 -127 87 -209t205 -82q129 0 211 87t82 223q0 135 -80.5 222t-212.5 87q-172 0 -258 -156h-133q113 271 391 271q101 0 185 -39l84 96l94 -64l-82 -94q135 -119 135 -323q0 -187 -114.5 -304t-301.5 -117q-186 0 -300.5 117t-114.5 304 z" />
<glyph unicode="&#xe2f;" horiz-adv-x="793" d="M20 676q0 80 74 143h160q-37 -16 -68.5 -58t-31.5 -79q0 -98 141 -98q217 0 303 131v104h123v-819h-123v569q-133 -94 -299 -94q-137 0 -211 60q-68 53 -68 141z" />
<glyph unicode="&#xe30;" horiz-adv-x="307" d="M31 102v136h123v-58h133v-78h-256zM31 582v135h123v-58h133v-77h-256z" />
<glyph unicode="&#xe31;" d="M-355 922v184h123v-82h427v-102h-550z" />
<glyph unicode="&#xe32;" horiz-adv-x="580" d="M10 662v129q78 43 193 43q155 0 239 -89q76 -77 76 -206v-539h-123v506q0 96 -51 154.5t-147 58.5q-99 0 -187 -57z" />
<glyph unicode="&#xe33;" horiz-adv-x="580" d="M-237 1028q0 45 34 76t83 31t83 -31t34 -76t-34 -75.5t-83 -30.5t-83 30.5t-34 75.5zM-167 1028q0 -43 47 -43t47 43t-47 43t-47 -43zM10 662v129q78 43 193 43q155 0 239 -89q76 -77 76 -206v-539h-123v506q0 96 -51 154.5t-147 58.5q-99 0 -187 -57z" />
<glyph unicode="&#xe34;" d="M-693 922v102h635v-102h-635z" />
<glyph unicode="&#xe35;" d="M-693 922v102h512v102h123v-204h-635z" />
<glyph unicode="&#xe36;" d="M-693 922v102h456v4q0 45 34 76t83 31t83 -31t34 -76t-34 -75.5t-83 -30.5h-573zM-167 1028q0 -43 47 -43t47 43t-47 43t-47 -43z" />
<glyph unicode="&#xe37;" d="M-693 922v102h348v102h102v-102h62v102h123v-204h-635z" />
<glyph unicode="&#xe38;" d="M-263 -79h205v-246h-123v144h-82v102z" />
<glyph unicode="&#xe39;" d="M-468 -79h184v-143q25 -13 47 -13q56 0 56 39v117h123v-123q0 -55 -52.5 -89t-126.5 -34q-108 0 -170 68v82h-61v96z" />
<glyph unicode="&#xe3a;" d="M-202 -161q0 33 23.5 57.5t58.5 24.5q33 0 57.5 -24.5t24.5 -57.5q0 -35 -24.5 -58.5t-57.5 -23.5q-35 0 -58.5 23.5t-23.5 58.5z" />
<glyph unicode="&#xe3f;" horiz-adv-x="743" d="M80 0v1081h147q49 0 74 -2v154h70v-164q239 -47 239 -285q0 -135 -102 -204q86 -21 142.5 -101t56.5 -176q0 -145 -103 -225q-90 -72 -233 -78v-157h-70v157h-221zM211 121h119q248 0 248 190q0 185 -246 185h-121v-375zM211 602h51q109 0 160 33q67 41 67 147 q0 179 -223 179h-55v-359z" />
<glyph unicode="&#xe40;" horiz-adv-x="287" d="M82 0v819h123v-819h-123z" />
<glyph unicode="&#xe41;" horiz-adv-x="512" d="M82 0v819h123v-819h-123zM307 0v819h123v-819h-123z" />
<glyph unicode="&#xe42;" horiz-adv-x="307" d="M-42 1137q0 63 47.5 98t123.5 35h283v-117h-291q-37 0 -37 -18q0 -19 37 -43q49 -35 67 -60q37 -45 37 -114v-918h-123v903q0 64 -72 125.5t-72 108.5z" />
<glyph unicode="&#xe43;" horiz-adv-x="307" d="M-118 1061q0 98 65 158.5t162 60.5q94 0 157.5 -52t63.5 -126q0 -51 -52.5 -104.5t-52.5 -102.5v-895h-123v915q0 62 52.5 107t52.5 76q0 71 -98 71q-107 0 -107 -108h-120z" />
<glyph unicode="&#xe44;" horiz-adv-x="307" d="M-124 1184l78 86l116 -105l118 95l146 -166q-109 -88 -109 -232v-862h-123v842q0 131 103 229l-35 37l-102 -86z" />
<glyph unicode="&#xe45;" horiz-adv-x="580" d="M10 662v129q78 43 193 43q155 0 239 -89q76 -77 76 -206v-843h-123v810q0 96 -51 154.5t-147 58.5q-99 0 -187 -57z" />
<glyph unicode="&#xe46;" horiz-adv-x="817" d="M31 434v144q0 114 71.5 182.5t194.5 68.5l96 -81l96 81q123 0 195 -68.5t72 -182.5v-882h-123v882q0 112 -96 139l-142 -121l-145 121q-96 -27 -96 -139v-27h168v-117h-291z" />
<glyph unicode="&#xe47;" d="M-675 922v79q0 86 60.5 137.5t171.5 51.5h383v-82h-377q-115 0 -115 -78v-6h88l111 57l108 -57h119v-102h-125l-102 59l-103 -59h-219z" />
<glyph unicode="&#xe48;" d="M-181 1188v184h123v-184h-123z" />
<glyph unicode="&#xe49;" d="M-308 1305v77h80q94 0 94 -75v-23h243v-96h-360v76q0 41 -41 41h-16z" />
<glyph unicode="&#xe4a;" d="M-325 1188v94q0 113 121 113h39l72 -56l69 56h32q117 0 117 -103v-16h117v-88h-222v100q0 31 -20 31l-93 -72l-96 72q-31 0 -31 -33v-18h59v-80h-164z" />
<glyph unicode="&#xe4b;" d="M-267 1264v86h92v75h110v-75h90v-86h-90v-76h-110v76h-92z" />
<glyph unicode="&#xe4c;" d="M-253 1106v35q0 112 133 112h101v-77h-56q-61 0 -61 -50v-20h-117z" />
<glyph unicode="&#xe4d;" d="M-237 1028q0 45 34 76t83 31t83 -31t34 -76t-34 -75.5t-83 -30.5t-83 30.5t-34 75.5zM-167 1028q0 -43 47 -43t47 43t-47 43t-47 -43z" />
<glyph unicode="&#xe4e;" d="M-548 1135q0 33 16 59.5t40 46t51.5 31.5t50.5 16q-29 26 -29 68q0 19 10.5 40.5t28.5 41.5t41.5 36.5t50.5 26.5q25 10 58 17t68 11t70.5 5.5t67.5 1.5h24h2v-106q-24 2 -56 0.5t-66.5 -6.5t-67 -12.5t-57 -16.5t-38 -19t-9.5 -20q0 -23 28 -31t70 -8h19h4v-94h-12h-17 h-8t-8 2q-21 0 -37.5 -0.5t-31 -2.5t-29.5 -6t-33 -10q-37 -11 -59.5 -29t-16.5 -38q6 -17 41 -17q13 0 29.5 2.5t33 8t32.5 12.5t28 16l53 -90q-17 -8 -30.5 -13.5t-24.5 -10.5q-34 -14 -65 -20.5t-60 -6.5q-5 2 -9 2h-7h-11q-62 8 -98.5 38.5t-36.5 74.5z" />
<glyph unicode="&#xe4f;" horiz-adv-x="963" d="M61 410q0 174 123 296.5t297 122.5t297 -122.5t123 -296.5t-123 -295.5t-297 -121.5t-297 121.5t-123 295.5zM123 410q0 -148 105.5 -253.5t252.5 -105.5q148 0 253.5 105.5t105.5 253.5q0 147 -105.5 252.5t-253.5 105.5q-147 0 -252.5 -105.5t-105.5 -252.5zM225 410 q0 106 75 181t181 75q107 0 181.5 -75t74.5 -181q0 -107 -74.5 -181.5t-181.5 -74.5q-106 0 -181 74.5t-75 181.5z" />
<glyph unicode="&#xe50;" horiz-adv-x="762" d="M31 307q0 131 102.5 225.5t247.5 94.5t247.5 -94.5t102.5 -225.5t-102.5 -223.5t-247.5 -92.5t-247.5 92.5t-102.5 223.5zM147 307q0 -88 68 -149.5t164 -61.5t163.5 61.5t67.5 149.5t-67.5 149.5t-163.5 61.5t-164 -61.5t-68 -149.5z" />
<glyph unicode="&#xe51;" horiz-adv-x="811" d="M31 328q0 131 112 217q107 82 254 82q162 0 271 -84q112 -90 112 -232q0 -153 -139 -268q-127 -101 -297 -124l-59 101q155 17 260 95q112 84 112 196q0 92 -74.5 149.5t-183.5 57.5q-100 0 -172.5 -54t-72.5 -136q0 -47 29.5 -87t76.5 -55q-29 41 -29 90q0 62 48.5 106 t115.5 44q68 0 116 -44t48 -106q0 -86 -76.5 -145t-187.5 -59q-117 0 -190.5 73.5t-73.5 182.5zM332 276q0 -55 63 -55q64 0 64 55q0 56 -64 56q-63 0 -63 -56z" />
<glyph unicode="&#xe52;" horiz-adv-x="1149" d="M-161 803l96 74q171 -158 239 -359q59 -172 84 -405h707v319q0 41 -29 65.5t-66 24.5q-63 0 -100 -55v-291h-123v295q-45 51 -112 51q-50 0 -85.5 -26.5t-39.5 -63.5q2 0 10 2h14q60 0 104 -39t44 -96q0 -55 -44 -94t-104 -39q-61 0 -104 39t-43 94v117q0 94 73.5 156.5 t174.5 62.5q100 0 174 -60q69 60 161 60q88 0 152.5 -53.5t64.5 -139.5v-442h-942q-24 297 -88 481q-58 178 -218 322zM379 299q0 -51 55 -51t55 51t-55 51t-55 -51z" />
<glyph unicode="&#xe53;" horiz-adv-x="965" d="M61 137v281q0 90 79 153.5t179 63.5q111 0 185 -60q78 60 172 60q90 0 158.5 -53.5t68.5 -137.5v-444h-123v434q0 88 -104 88q-72 0 -111 -53v-469h-123v473q-43 49 -123 49q-51 0 -93 -29.5t-42 -74.5v-137q19 6 41 6q68 0 116 -44t48 -106q0 -61 -48 -102.5t-116 -41.5 q-67 0 -115.5 41.5t-48.5 102.5zM162 137q0 -55 63 -55q64 0 64 55q0 56 -64 56q-63 0 -63 -56z" />
<glyph unicode="&#xe54;" horiz-adv-x="872" d="M31 289q-2 139 105.5 232t256.5 93h283q84 0 84 230h123q4 -146 -43 -236q-56 -106 -164 -106h-283q-100 0 -170.5 -59.5t-68.5 -153.5q2 -92 71 -146q64 -47 152 -47q37 0 125 17q-72 65 -72 143q0 68 49 113t117 45t116 -44t48 -108q0 -80 -74 -127q19 0 31 -2 q110 -18 168 -70l-74 -85q-80 45 -172 45q-35 0 -117 -16t-153 -16q-140 0 -232 70q-104 82 -106 228zM532 262q0 -55 64 -55q63 0 63 55t-63 55q-64 0 -64 -55z" />
<glyph unicode="&#xe55;" horiz-adv-x="872" d="M31 289q-2 112 71 200q72 82 187 111q-23 37 -23 72q0 63 51.5 108t120.5 45q72 0 122 -44t50 -109q0 -33 -16 -58h82q53 0 72 76q10 43 12 154h123q2 -144 -45 -236q-54 -106 -162 -106h-283q-100 0 -170.5 -59.5t-68.5 -153.5q2 -92 71 -146q64 -47 152 -47 q37 0 125 17q-72 65 -72 143q0 68 49 113t117 45t116 -44t48 -108q0 -80 -74 -127q19 0 31 -2q110 -18 168 -70l-74 -85q-80 45 -172 45q-35 0 -117 -16t-153 -16q-140 0 -232 70q-102 82 -106 228zM377 672q0 -58 61 -58q62 0 62 58q0 22 -18.5 39.5t-43.5 17.5 q-24 0 -42.5 -17.5t-18.5 -39.5zM532 262q0 -55 64 -55q63 0 63 55t-63 55q-64 0 -64 -55z" />
<glyph unicode="&#xe56;" horiz-adv-x="819" d="M-108 774l93 70q150 -121 197 -271q107 62 238 62q155 0 261.5 -90t106.5 -230q0 -143 -110.5 -234.5t-274.5 -91.5q-149 0 -246.5 74t-97.5 175q0 65 48.5 108t117.5 43q68 0 116 -44t48 -105q0 -82 -76 -127q37 -15 90 -15q109 0 186 60.5t77 156.5q0 88 -73 146.5 t-173 58.5q-133 0 -242 -98l-98 24q-35 187 -188 328zM162 240q0 -58 63 -58q64 0 64 58q0 57 -64 57q-63 0 -63 -57z" />
<glyph unicode="&#xe57;" horiz-adv-x="1198" d="M61 139v277q0 92 79 155.5t179 63.5q111 0 185 -60q78 60 172 60q90 0 158.5 -53.5t68.5 -139.5v-336q37 0 74 26t37 71v413q0 129 127 228l98 -70q-102 -61 -102 -166v-399q0 -105 -97.5 -163.5t-259.5 -50.5v437q0 43 -31.5 66.5t-72.5 23.5q-70 0 -111 -55v-467h-123 v471q-45 51 -123 51q-51 0 -93 -30.5t-42 -75.5v-131q25 4 41 4q68 0 116 -44t48 -106q0 -63 -48 -104.5t-116 -41.5q-67 0 -115.5 41.5t-48.5 104.5zM162 139q0 -55 63 -55q64 0 64 55q0 56 -64 56q-63 0 -63 -56z" />
<glyph unicode="&#xe58;" horiz-adv-x="899" d="M31 291q0 153 127 248q121 88 303 88q131 0 225 -23q57 98 72 240l119 -19q-27 -202 -140 -350q-125 43 -256 43q-143 0 -235 -66.5t-92 -160.5q0 -62 43 -115q34 -47 77 -61l138 129l188 -152l53 31q-94 31 -94 117q0 57 44 98t106 41q61 0 105 -43t44 -100 q0 -130 -276 -253l-168 128l-127 -128q-107 23 -176 101q-80 86 -80 207zM653 240q0 -50 56 -50q55 0 55 50q0 53 -55 53q-56 0 -56 -53z" />
<glyph unicode="&#xe59;" horiz-adv-x="963" d="M31 317q0 140 98 231t242 91q135 0 235 -88q58 88 160 88q47 0 94 -27q31 99 14 232h125q5 -31 5 -62q0 -215 -113 -329l-64 18q-6 53 -61 53q-61 0 -70 -73q111 -170 144 -445l-123 -13q-68 531 -346 531q-92 0 -154.5 -60.5t-62.5 -148.5q0 -135 94 -194q-10 24 -10 49 q0 63 48 107.5t115 44.5q68 0 116 -44.5t48 -107.5q0 -80 -67.5 -129.5t-155.5 -49.5q-149 0 -233 97q-78 92 -78 229zM340 170q0 -57 61 -57q62 0 62 57t-62 57q-61 0 -61 -57z" />
<glyph unicode="&#xe5a;" horiz-adv-x="1008" d="M20 676q0 41 22.5 79t51.5 64h160q-18 -6 -35.5 -21.5t-32 -35t-23.5 -41t-9 -39.5q0 -45 39 -71.5t102 -26.5q122 0 211 49q57 32 92 82v104h123v-170q35 19 62.5 43.5t39.5 42.5v84h123v-819h-123v590q-6 -4 -18.5 -12t-27 -17t-29.5 -17t-27 -12v-532h-123v569 q-68 -48 -146 -71t-153 -23q-68 0 -120.5 15t-87.5 41.5t-53 63.5t-18 81z" />
<glyph unicode="&#xe5b;" horiz-adv-x="1499" d="M61 416q0 149 74 252q74 104 182 104q46 0 86 -19.5t70 -54t47 -82.5t17 -104q0 -44 -10.5 -81t-29 -63.5t-45 -41.5t-57.5 -15q-25 0 -47.5 10.5t-39 29.5t-26.5 44.5t-10 55.5q0 28 9.5 53.5t26 44.5t38.5 30t47 11l29 -4q-8 42 -36.5 68t-66.5 26q-33 0 -61.5 -20 t-49 -56t-32.5 -86t-12 -110q0 -59 13.5 -107.5t38 -83t59 -53.5t77.5 -19q49 0 92.5 26.5t78.5 75t59.5 118t35.5 155.5q10 86 58 86q32 0 59.5 -44.5t44.5 -131.5q6 25 9.5 51t3.5 54q0 51 41 51q52 0 102 -129q0 12 0.5 28t4.5 30t11.5 24t22.5 10q49 0 96 -109 q3 13 6.5 27t8.5 25t13.5 18.5t20.5 7.5q26 0 72 -69q15 45 47 38l178 -18q56 -6 56 -35q0 -25 -56 -33l-174 -18q-6 -23 -18 -39t-29 -16q-13 0 -22 12q-11 20 -20 36t-17 27q-7 -43 -23 -71.5t-39 -28.5q-10 0 -19 8.5t-18 22.5t-18.5 31.5t-18.5 35.5q-5 -29 -10 -50 t-10 -34q-18 -36 -47 -36q-22 0 -37 41q-14 43 -22.5 66t-10.5 28q-10 -44 -20 -74.5t-21.5 -49.5t-25 -27.5t-31.5 -8.5q-36 0 -45 49q-5 25 -7.5 40.5t-4.5 23.5q-2 5 -5.5 16.5t-11.5 34.5q-10 -43 -20.5 -76t-24 -61t-30.5 -53t-39 -52q-107 -119 -238 -119 q-62 0 -113 26t-88 73t-57.5 112.5t-20.5 145.5zM346 453q0 -26 13.5 -42t33.5 -16q51 0 51 58q0 57 -51 57q-47 0 -47 -57z" />
<glyph unicode="&#x2000;" horiz-adv-x="799" />
<glyph unicode="&#x2001;" horiz-adv-x="1599" />
<glyph unicode="&#x2002;" horiz-adv-x="799" />
<glyph unicode="&#x2003;" horiz-adv-x="1599" />
<glyph unicode="&#x2004;" horiz-adv-x="533" />
<glyph unicode="&#x2005;" horiz-adv-x="399" />
<glyph unicode="&#x2006;" horiz-adv-x="266" />
<glyph unicode="&#x2007;" horiz-adv-x="266" />
<glyph unicode="&#x2008;" horiz-adv-x="199" />
<glyph unicode="&#x2009;" horiz-adv-x="319" />
<glyph unicode="&#x200a;" horiz-adv-x="88" />
<glyph unicode="&#x2010;" horiz-adv-x="457" d="M72 317v103h313v-103h-313z" />
<glyph unicode="&#x2011;" horiz-adv-x="457" d="M72 317v103h313v-103h-313z" />
<glyph unicode="&#x2012;" horiz-adv-x="457" d="M72 317v103h313v-103h-313z" />
<glyph unicode="&#x2013;" horiz-adv-x="799" d="M61 317v103h676v-103h-676z" />
<glyph unicode="&#x2014;" horiz-adv-x="1597" d="M61 317v103h1475v-103h-1475z" />
<glyph unicode="&#x2018;" horiz-adv-x="373" d="M82 842q0 143 168 241l29 -36q-101 -56 -123 -146q16 8 45 8q35 0 62.5 -27.5t27.5 -62.5q0 -37 -29 -65.5t-69 -28.5q-50 0 -80.5 36t-30.5 81z" />
<glyph unicode="&#x2019;" horiz-adv-x="373" d="M82 989q0 37 28.5 65.5t69.5 28.5q49 0 80 -35.5t31 -80.5q0 -144 -168 -242l-29 37q101 55 123 145q-16 -8 -45 -8q-35 0 -62.5 27.5t-27.5 62.5z" />
<glyph unicode="&#x201c;" horiz-adv-x="664" d="M82 842q0 143 168 241l29 -36q-101 -56 -123 -146q16 8 45 8q35 0 62.5 -27.5t27.5 -62.5q0 -37 -29 -65.5t-69 -28.5q-50 0 -80.5 36t-30.5 81zM373 842q0 143 168 241l28 -36q-100 -56 -123 -146q17 8 46 8q34 0 62 -27.5t28 -62.5q0 -37 -29 -65.5t-70 -28.5 q-49 0 -79.5 36t-30.5 81z" />
<glyph unicode="&#x201d;" horiz-adv-x="664" d="M82 989q0 37 28.5 65.5t69.5 28.5q49 0 80 -35.5t31 -80.5q0 -144 -168 -242l-29 37q101 55 123 145q-16 -8 -45 -8q-35 0 -62.5 27.5t-27.5 62.5zM373 989q0 37 28.5 65.5t69.5 28.5q49 0 80 -35.5t31 -80.5q0 -144 -168 -242l-29 37q100 55 123 145q-16 -8 -45 -8 q-35 0 -62.5 27.5t-27.5 62.5z" />
<glyph unicode="&#x2022;" horiz-adv-x="737" d="M61 410q0 127 90.5 217t217.5 90t217 -90t90 -217t-90 -217.5t-217 -90.5t-217.5 90.5t-90.5 217.5z" />
<glyph unicode="&#x2026;" horiz-adv-x="1118" d="M102 74q0 35 25 59.5t59 24.5q35 0 59.5 -24.5t24.5 -59.5t-24.5 -58t-59.5 -23q-34 0 -59 23t-25 58zM475 74q0 35 24.5 59.5t59.5 24.5t59.5 -24.5t24.5 -59.5t-24.5 -58t-59.5 -23t-59.5 23t-24.5 58zM848 74q0 35 24.5 59.5t59.5 24.5t59.5 -24.5t24.5 -59.5 t-24.5 -58t-59.5 -23t-59.5 23t-24.5 58z" />
<glyph unicode="&#x202f;" horiz-adv-x="319" />
<glyph unicode="&#x205f;" horiz-adv-x="399" />
<glyph unicode="&#x25fc;" horiz-adv-x="670" d="M0 0v670h670v-670h-670z" />
<glyph unicode="&#xf700;" horiz-adv-x="793" d="M-28 662q163 163 386 163q103 0 183 -37l92 103l102 -68l-92 -102q119 -113 119 -303q0 -197 -137 -318q-146 -124 -379 -109l-101 417h-88v104h189l98 -412q131 9 213 99t82 219t-79 211t-206 82q-157 0 -284 -125z" />
<glyph unicode="&#xf701;" d="M-857 922v102h594v-102h-594z" />
<glyph unicode="&#xf702;" d="M-857 922v102h471v102h123v-204h-594z" />
<glyph unicode="&#xf703;" d="M-857 922v102h416v4q0 45 33.5 76t82.5 31q50 0 83.5 -31t33.5 -76t-33.5 -75.5t-83.5 -30.5h-532zM-372 1028q0 -43 47 -43t47 43t-47 43t-47 -43z" />
<glyph unicode="&#xf704;" d="M-857 922v102h307v102h102v-102h62v102h123v-204h-594z" />
<glyph unicode="&#xf705;" d="M-407 922v225h123v-225h-123z" />
<glyph unicode="&#xf706;" d="M-445 1044v82h84q100 0 100 -77v-25h296v-102h-419v79q0 43 -43 43h-18z" />
<glyph unicode="&#xf707;" d="M-783 922v112q0 135 145 135h47l86 -65l82 65h43q139 0 139 -122v-23h241v-102h-366v120q0 37 -26 37l-113 -86l-117 86q-36 0 -36 -39v-22h71v-96h-196z" />
<glyph unicode="&#xf708;" d="M-568 1008v94h102v86h123v-86h102v-94h-102v-86h-123v86h-102z" />
<glyph unicode="&#xf709;" d="M-486 922v36q0 119 139 119h106v-82h-59q-64 0 -64 -51v-22h-122z" />
<glyph unicode="&#xf70a;" d="M-181 922v225h123v-225h-123z" />
<glyph unicode="&#xf70b;" d="M-392 1044v82h84q100 0 100 -77v-25h255v-102h-378v79q0 43 -43 43h-18z" />
<glyph unicode="&#xf70c;" d="M-691 922v112q0 135 145 135h47l86 -65l82 65h43q139 0 139 -122v-23h142v-102h-266v120q0 37 -27 37l-113 -86l-116 86q-37 0 -37 -39v-22h71v-96h-196z" />
<glyph unicode="&#xf70d;" d="M-284 1008v94h103v86h123v-86h99v-94h-99v-86h-123v86h-103z" />
<glyph unicode="&#xf70e;" d="M-263 922v36q0 119 139 119h107v-82h-60q-63 0 -63 -51v-22h-123z" />
<glyph unicode="&#xf70f;" horiz-adv-x="1352" d="M61 0v655q123 179 349 179q147 0 243 -70q105 -78 105 -207v-301q0 -74 58 -115t147 -41q88 0 146 41t58 115v563h123v-563q0 -123 -94 -195t-233 -72q-140 0 -234 72t-94 195v283q0 86 -63.5 133t-161.5 47q-148 0 -226 -96v-510h123v-113h-246z" />
<glyph unicode="&#xf710;" d="M-476 922v184h123v-82h427v-102h-550z" />
<glyph unicode="&#xf711;" d="M-441 1028q0 45 33.5 76t82.5 31q50 0 83.5 -31t33.5 -76t-33.5 -75.5t-83.5 -30.5q-49 0 -82.5 30.5t-33.5 75.5zM-372 1028q0 -43 47 -43t47 43t-47 43t-47 -43z" />
<glyph unicode="&#xf712;" d="M-792 922v79q0 86 60.5 137.5t171.5 51.5h383v-82h-377q-115 0 -115 -78v-6h88l111 57l109 -57h118v-102h-125l-102 59l-102 -59h-220z" />
<glyph unicode="&#xf713;" d="M-386 1188v184h123v-184h-123z" />
<glyph unicode="&#xf714;" d="M-443 1305v77h79q95 0 95 -75v-23h245v-96h-362v76q0 41 -41 41h-16z" />
<glyph unicode="&#xf715;" d="M-443 1188v94q0 113 120 113h39l72 -56l70 56h34q114 0 114 -103v-16h117v-88h-218v100q0 31 -23 31l-94 -72l-96 72q-31 0 -31 -33v-18h59v-80h-163z" />
<glyph unicode="&#xf716;" d="M-472 1264v86h92v75h111v-75h92v-86h-92v-76h-111v76h-92z" />
<glyph unicode="&#xf717;" d="M-437 1106v35q0 112 133 112h100v-77h-55q-62 0 -62 -50v-20h-116z" />
<glyph unicode="&#xf718;" d="M-263 -386h205v-246h-123v144h-82v102z" />
<glyph unicode="&#xf719;" d="M-468 -386h184v-143q25 -13 47 -13q56 0 56 39v117h123v-123q0 -55 -52.5 -89t-126.5 -34q-108 0 -170 68v82h-61v96z" />
<glyph unicode="&#xf71a;" d="M-222 -468q0 33 23.5 57.5t58.5 24.5q32 0 57 -24.5t25 -57.5q0 -35 -25 -58.5t-57 -23.5q-35 0 -58.5 23.5t-23.5 58.5z" />
<glyph unicode="&#xf71b;" d="M-476 -1h476v1209h-476v-1209z" />
<glyph unicode="&#xf71c;" horiz-adv-x="573" />
<glyph unicode="&#xf71d;" horiz-adv-x="573" d="M61 0h451v-192h-35v68q-31 27 -86 27h-221q-39 0 -74 -23v-72h-35v192z" />
<glyph horiz-adv-x="1599" d="M100 0h1399v1599h-1399v-1599zM201 100v1399h1200v-1399h-1200z" />
<glyph horiz-adv-x="512" />
</font>
</defs>
</svg>
